<?xml version="1.0" encoding="UTF-8"?>
<svg id="svg17" xmlns="http://www.w3.org/2000/svg" xmlns:xlink="http://www.w3.org/1999/xlink" viewBox="0 0 467.01 59.11">
  <defs>
    <style>
      .cls-1 {
        fill: url(#linear-gradient);
      }

      .cls-1, .cls-2, .cls-3, .cls-4, .cls-5, .cls-6, .cls-7, .cls-8, .cls-9, .cls-10, .cls-11 {
        stroke-width: 0px;
      }

      .cls-2 {
        fill: url(#linear-gradient-6);
      }

      .cls-3 {
        fill: url(#linear-gradient-11);
      }

      .cls-4 {
        fill: url(#linear-gradient-5);
      }

      .cls-5 {
        fill: url(#linear-gradient-2);
      }

      .cls-6 {
        fill: url(#linear-gradient-7);
      }

      .cls-7 {
        fill: url(#linear-gradient-3);
      }

      .cls-8 {
        fill: url(#linear-gradient-9);
      }

      .cls-9 {
        fill: url(#linear-gradient-8);
      }

      .cls-10 {
        fill: url(#linear-gradient-10);
      }

      .cls-11 {
        fill: url(#linear-gradient-4);
      }
    </style>
    <linearGradient id="linear-gradient" x1="19.79" y1=".33" x2="19.79" y2="59.11" gradientUnits="userSpaceOnUse">
      <stop offset="0" stop-color="#1f38ff"/>
      <stop offset=".07" stop-color="#233dff"/>
      <stop offset=".42" stop-color="#3557ff"/>
      <stop offset=".74" stop-color="#4066ff"/>
      <stop offset=".99" stop-color="#446cff"/>
    </linearGradient>
    <linearGradient id="linear-gradient-2" x1="58.84" x2="58.84" xlink:href="#linear-gradient"/>
    <linearGradient id="linear-gradient-3" x1="89.53" x2="89.53" xlink:href="#linear-gradient"/>
    <linearGradient id="linear-gradient-4" x1="133.33" x2="133.33" y2="58.86" xlink:href="#linear-gradient"/>
    <linearGradient id="linear-gradient-5" x1="179.49" x2="179.49" y2="59.03" xlink:href="#linear-gradient"/>
    <linearGradient id="linear-gradient-6" x1="240.97" x2="240.97" y2="58.86" xlink:href="#linear-gradient"/>
    <linearGradient id="linear-gradient-7" x1="286.34" y1="0" x2="286.34" y2="58.94" xlink:href="#linear-gradient"/>
    <linearGradient id="linear-gradient-8" x1="325.79" x2="325.79" y2="58.86" xlink:href="#linear-gradient"/>
    <linearGradient id="linear-gradient-9" x1="361.16" y1="0" x2="361.16" y2="58.94" xlink:href="#linear-gradient"/>
    <linearGradient id="linear-gradient-10" x1="401.54" x2="401.54" y2="58.86" xlink:href="#linear-gradient"/>
    <linearGradient id="linear-gradient-11" x1="444.39" x2="444.39" y2="59.03" xlink:href="#linear-gradient"/>
  </defs>
  <path class="cls-1" d="M0,34.95l8.12-14.82h26.28l5.19,38.98h-13.55l-3.85-24.2-22.19.04ZM10.15,14.45L18.13.33h13.55l2,14.11H10.15Z"/>
  <path class="cls-5" d="M80.23,20.13c0,9.99-1.23,17.82-3.69,23.49-1.97,4.54-3.77,7.78-5.4,9.71-3.25,3.85-7.33,5.77-12.23,5.77h-21.45l7.06-38.98h13.31l-4.48,23.74c.84.53,1.75.79,2.71.79,1.81,0,3.68-.86,5.61-2.57,3.14-2.79,5.2-6.79,6.17-12,.51-2.71.8-6.03.87-9.96h11.52ZM79.54,14.57h-37.4L47.94.33h21.77c2.35,0,4.55,1.44,6.59,4.32,2.07,2.96,3.15,6.27,3.24,9.92Z"/>
  <path class="cls-7" d="M69.74,34.95l8.12-14.82h26.28l5.19,38.98h-13.55l-3.85-24.2-22.19.04ZM79.88,14.45L87.87.33h13.55l2,14.11h-23.54Z"/>
  <path class="cls-11" d="M156.47,20.13l-6.96,38.73h-13.47l6.19-34.79-9.12,11.58-7.56-11.58-6.27,34.79h-12.49l6.88-38.73h42.8ZM159.87.33l-2.56,14.24h-42.72l2.5-14.24h12.65l7.48,11.33L146.43.33h13.44Z"/>
  <path class="cls-4" d="M197.37,40.62c-.28,4.52-1.73,8.84-4.35,12.97-1.46,2.3-3.69,4.11-6.69,5.44l-29.47-.13,2.87-16.15,20.4.17c1.76-.31,2.64-1.67,2.64-4.09,0-1.39-.09-2.31-.26-2.75-.23-.58-.81-1.11-1.74-1.59h-10.41c-2.25,0-3.91-.89-4.97-2.68-1.06-1.79-1.59-4.7-1.59-8.74v-2.95h23.85c2.92.61,4.88,1.52,5.9,2.74.14.19,1.12,1.87,2.93,5.03.67,2.71,1,5.8,1,9.27,0,1.16-.04,2.31-.11,3.45ZM202.12.33l-2.4,14.11h-35c.72-3.46,2.06-6.59,4.03-9.38,2.21-3.15,4.5-4.73,6.85-4.73h26.51Z"/>
  <path class="cls-2" d="M264.1,20.13l-6.96,38.73h-13.47l6.19-34.79-9.12,11.58-7.56-11.58-6.27,34.79h-12.49l6.88-38.73h42.8ZM267.51.33l-2.56,14.24h-42.72l2.5-14.24h12.65l7.48,11.33L254.06.33h13.44Z"/>
  <path class="cls-6" d="M305.61,20.09l-.24,1.33c-.54,2.96-1.53,8.33-2.95,16.11-.88,4.95-2.26,9.09-4.14,12.41-3.39,6.01-7.93,9.01-13.63,9.01h-6.43c-3.43,0-6.16-1.01-8.2-3.03-2.48-2.46-3.72-6.24-3.72-11.33,0-2.71.26-5.59.79-8.63l2.74-15.73h12.57l-3.72,20.67c-.18.97-.26,1.7-.26,2.2,0,1.11.32,1.81.97,2.12h7.83c1-.42,1.73-1.85,2.19-4.32l3.85-20.67,12.33-.12ZM306.35,14.57h-35.55c.72-3.82,1.95-7.06,3.69-9.71,2.13-3.24,4.31-4.86,6.56-4.86h18.34c4.64,0,6.96,3.87,6.96,11.62v2.95Z"/>
  <path class="cls-9" d="M345.02.33l-2.5,14.11h-35.95l5.72-14.11h32.73ZM331.02,20.13l-6.56,38.73h-12.33l6.69-38.73h12.2Z"/>
  <path class="cls-8" d="M380.44,20.09l-.24,1.33c-.54,2.96-1.53,8.33-2.95,16.11-.88,4.95-2.26,9.09-4.14,12.41-3.39,6.01-7.93,9.01-13.63,9.01h-6.43c-3.43,0-6.16-1.01-8.2-3.03-2.48-2.46-3.72-6.24-3.72-11.33,0-2.71.26-5.59.79-8.63l2.74-15.73h12.57l-3.72,20.67c-.18.97-.26,1.7-.26,2.2,0,1.11.32,1.81.97,2.12h7.83c1-.42,1.73-1.85,2.19-4.32l3.85-20.67,12.33-.12ZM381.17,14.57h-35.55c.72-3.82,1.95-7.06,3.69-9.71,2.13-3.24,4.31-4.86,6.56-4.86h18.34c4.64,0,6.96,3.87,6.96,11.62v2.95Z"/>
  <path class="cls-10" d="M424.19,20.13c-.3,3.46-1.56,6.71-3.77,9.75-1.04,1.41-1.88,2.31-2.53,2.7.83,2.02,1.24,4.15,1.24,6.39,0,1.33-.12,3.18-.37,5.56-.16,1.49-1.11,6.27-2.85,14.32h-12.1l4.32-23.37h-12.73l-4.59,23.37h-12.57l7.25-38.73h38.69ZM424.82,14.45h-41.83l5.72-14.11h30.7c.83,0,1.68.47,2.56,1.41.83.89,1.45,1.94,1.87,3.15.65,1.88.97,5.06.97,9.55Z"/>
  <path class="cls-3" d="M462.27,40.62c-.28,4.52-1.73,8.84-4.35,12.97-1.46,2.3-3.69,4.11-6.69,5.44l-29.47-.13,2.87-16.15,20.4.17c1.76-.31,2.64-1.67,2.64-4.09,0-1.39-.09-2.31-.26-2.75-.23-.58-.81-1.11-1.74-1.59h-10.41c-2.25,0-3.91-.89-4.97-2.68-1.06-1.79-1.6-4.7-1.6-8.74v-2.95h23.85c2.92.61,4.88,1.52,5.9,2.74.14.19,1.12,1.87,2.92,5.03.67,2.71,1,5.8,1,9.27,0,1.16-.04,2.31-.11,3.45ZM467.01.33l-2.4,14.11h-35c.72-3.46,2.06-6.59,4.03-9.38,2.21-3.15,4.5-4.73,6.85-4.73h26.51Z"/>
</svg>